<svg xmlns="http://www.w3.org/2000/svg" viewBox="0 0 75.757 10.583" height="40" width="286.327"><g transform="translate(-48.767 -31.073)"><g aria-label="PACKAGER DASHBOARD" style="font-style:normal;font-weight:400;line-height:0%;font-family:sans-serif;letter-spacing:0;word-spacing:0;fill:#555753;fill-opacity:1;stroke:none;stroke-width:.202942px;stroke-linecap:butt;stroke-linejoin:miter;stroke-opacity:1"><path d="M62.252 34.893h-2.127v5.682h.6v-1.794h1.527c1.445 0 2.322-.73 2.322-1.94 0-1.218-.877-1.948-2.322-1.948zm-.016 3.36h-1.51v-2.84h1.51c1.136 0 1.737.519 1.737 1.428 0 .893-.6 1.412-1.737 1.412zM69.834 40.575h.633l-2.598-5.682h-.592l-2.598 5.682h.625l.682-1.518h3.166zm-3.629-2.005 1.364-3.052 1.364 3.052zM73.795 40.624c.836 0 1.583-.284 2.086-.836l-.381-.382c-.463.479-1.031.682-1.68.682-1.372 0-2.403-1.007-2.403-2.354 0-1.348 1.03-2.354 2.403-2.354.649 0 1.217.203 1.68.673l.381-.381c-.503-.552-1.25-.828-2.078-.828-1.713 0-2.979 1.226-2.979 2.89 0 1.664 1.266 2.89 2.971 2.89zM81.247 40.575h.715l-2.63-3.109 2.46-2.573h-.69l-3.337 3.433v-3.433h-.601v5.682h.6v-1.494l1.162-1.177Z" style="font-style:normal;font-variant:normal;font-weight:400;font-stretch:normal;font-size:8.11767px;line-height:1.25;font-family:Montserrat;-inkscape-font-specification:Montserrat;fill:#555753;fill-opacity:1;stroke-width:.202942px" transform="matrix(.61336 0 0 .61336 25.104 14.58)"/><path d="M86.962 40.575h.633l-2.597-5.682h-.593l-2.598 5.682h.625l.682-1.518h3.166zm-3.629-2.005 1.364-3.052 1.364 3.052zM92.458 39.65c-.439.316-.942.438-1.486.438-1.396 0-2.427-1.007-2.427-2.354 0-1.356 1.03-2.354 2.435-2.354.666 0 1.234.195 1.713.665l.374-.381c-.504-.544-1.25-.82-2.111-.82-1.737 0-3.004 1.226-3.004 2.89 0 1.664 1.267 2.89 2.996 2.89.787 0 1.55-.244 2.086-.723v-2.167h-.576zM95.331 40.055v-2.11h2.939v-.512H95.33v-2.02h3.296v-.52h-3.896v5.682h4.018v-.52zM104.7 40.575l-1.389-1.948c.828-.268 1.299-.893 1.299-1.786 0-1.218-.877-1.948-2.322-1.948h-2.127v5.682h.601v-1.802h1.526c.163 0 .309-.008.455-.024l1.299 1.826zm-2.428-2.314h-1.51v-2.849h1.51c1.136 0 1.737.52 1.737 1.429 0 .893-.6 1.42-1.737 1.42zM108.157 40.575h2.314c1.818 0 3.044-1.169 3.044-2.841 0-1.672-1.226-2.841-3.044-2.841h-2.314zm.601-.52v-4.643h1.68c1.51 0 2.484.958 2.484 2.322s-.974 2.321-2.484 2.321zM119.027 40.575h.633l-2.598-5.682h-.592l-2.598 5.682h.625l.682-1.518h3.166zm-3.629-2.005 1.364-3.052 1.364 3.052zM122.168 40.624c1.453 0 2.119-.715 2.119-1.55 0-2.07-3.499-1.13-3.499-2.688 0-.568.463-1.03 1.502-1.03.503 0 1.072.154 1.559.47l.203-.479c-.455-.316-1.12-.503-1.762-.503-1.445 0-2.094.722-2.094 1.559 0 2.102 3.498 1.144 3.498 2.703 0 .56-.462 1.006-1.526 1.006-.747 0-1.469-.292-1.875-.69l-.235.463c.422.438 1.258.739 2.11.739zM129.75 34.893v2.532h-3.555v-2.532h-.601v5.682h.6v-2.622h3.556v2.622h.593v-5.682zM135.774 37.645c.52-.212.868-.642.868-1.291 0-.926-.73-1.461-1.997-1.461h-2.451v5.682h2.614c1.42 0 2.134-.552 2.134-1.518 0-.771-.438-1.25-1.168-1.412zm-1.17-2.257c.91 0 1.437.349 1.437 1.03 0 .683-.527 1.032-1.436 1.032h-1.81v-2.062zm.195 4.692h-2.005v-2.135h2.005c.999 0 1.543.325 1.543 1.063 0 .747-.544 1.072-1.543 1.072zM140.798 40.624c1.705 0 2.98-1.226 2.98-2.89 0-1.664-1.275-2.89-2.98-2.89-1.72 0-2.987 1.234-2.987 2.89 0 1.656 1.266 2.89 2.987 2.89zm0-.536c-1.372 0-2.394-.999-2.394-2.354 0-1.356 1.022-2.354 2.394-2.354 1.364 0 2.379.998 2.379 2.354 0 1.355-1.015 2.354-2.379 2.354zM149.29 40.575h.633l-2.598-5.682h-.593l-2.597 5.682h.625l.682-1.518h3.166zm-3.63-2.005 1.365-3.052 1.363 3.052zM155.402 40.575l-1.388-1.948c.828-.268 1.299-.893 1.299-1.786 0-1.218-.877-1.948-2.322-1.948h-2.127v5.682h.601v-1.802h1.526c.162 0 .309-.008.455-.024l1.298 1.826zm-2.427-2.314h-1.51v-2.849h1.51c1.136 0 1.737.52 1.737 1.429 0 .893-.6 1.42-1.737 1.42zM156.733 40.575h2.314c1.818 0 3.044-1.169 3.044-2.841 0-1.672-1.226-2.841-3.044-2.841h-2.314zm.601-.52v-4.643h1.68c1.51 0 2.484.958 2.484 2.322s-.974 2.321-2.484 2.321z" style="font-style:normal;font-variant:normal;font-weight:400;font-stretch:normal;font-size:8.11767px;line-height:1.25;font-family:Montserrat;-inkscape-font-specification:Montserrat;fill:#555753;fill-opacity:1;stroke-width:.202942px" transform="matrix(.61336 0 0 .61336 25.104 14.58)"/></g><path d="M316.774 397.581h-20.54c.333 4.452 3.922 7.776 8.708 7.776 3.39 0 6.314-1.396 8.64-3.655.466-.467.998-.6 1.596-.6.798 0 1.596.4 2.127 1.064.333.466.532.998.532 1.529 0 .731-.333 1.528-.931 2.127-2.792 2.99-7.51 4.985-12.164 4.985-8.442 0-15.22-6.78-15.22-15.221 0-8.442 6.58-15.221 15.02-15.221 8.376 0 14.624 6.513 14.624 15.087 0 1.265-1.13 2.129-2.392 2.129zm-12.231-11.765c-4.453 0-7.51 2.925-8.175 7.177h16.35c-.598-4.053-3.788-7.177-8.175-7.177zM375.463 410.808c-8.44 0-15.22-6.78-15.22-15.222 0-8.441 6.78-15.22 15.22-15.22 8.443 0 15.222 6.779 15.222 15.22 0 8.442-6.78 15.222-15.222 15.222zm0-24.66c-5.316 0-8.773 4.254-8.773 9.438 0 5.184 3.457 9.439 8.773 9.439 5.318 0 8.775-4.255 8.775-9.439s-3.457-9.438-8.775-9.438zM412.662 380.366c-4.46 0-7.41 1.319-10.014 4.63l-.24-1.54a3.26 3.26 0 0 0-6.496.41v23.419a3.262 3.262 0 0 0 3.257 3.257 3.263 3.263 0 0 0 3.257-3.257v-12.562c0-5.716 4.985-8.574 10.236-8.574 1.595 0 2.858-1.33 2.858-2.926a2.835 2.835 0 0 0-2.858-2.857zM447.026 395.586c.067-8.175-5.783-15.22-15.222-15.22-8.442 0-15.288 6.779-15.288 15.22 0 8.442 6.647 15.222 14.69 15.222 4.015 0 7.627-2.066 9.239-4.225l.793 2.014a2.99 2.99 0 0 0 5.788-1.048v-7.807zm-15.222 9.439c-5.318 0-8.774-4.255-8.774-9.439s3.456-9.438 8.774-9.438c5.317 0 8.774 4.254 8.774 9.438 0 5.184-3.457 9.439-8.774 9.439zM355.015 368.334c0-1.794-1.462-3.19-3.257-3.19-1.794 0-3.257 1.396-3.257 3.19v17.15c-1.661-3.058-5.25-5.118-9.505-5.118-8.64 0-14.424 6.513-14.424 15.22 0 8.708 5.983 15.222 14.424 15.222 3.765 0 7.03-1.554 8.986-4.255l.723 1.834a3.25 3.25 0 0 0 6.31-1.088v-38.965zm-15.221 36.69c-5.318 0-8.708-4.254-8.708-9.438 0-5.184 3.39-9.438 8.708-9.438 5.317 0 8.707 4.055 8.707 9.438 0 5.384-3.39 9.439-8.707 9.439zM287.216 365.34a12.37 12.37 0 0 0-1.801-.132c-6.732 0-12.208 5.477-12.208 12.208v3.813h-3.989a2.667 2.667 0 0 0-2.659 2.658c0 1.463 1.197 2.938 2.66 2.938h3.987v20.46a3.263 3.263 0 0 0 3.257 3.257 3.263 3.263 0 0 0 3.257-3.257v-20.46h4.41c1.462 0 2.658-1.475 2.658-2.938a2.666 2.666 0 0 0-2.658-2.658h-4.407v-3.813c0-3.139 2.553-6.115 5.692-6.115.282 0 .567.021.846.062 1.78.264 3.436-.543 3.7-2.323a3.259 3.259 0 0 0-2.745-3.7z" style="fill:#3c6eb4" transform="matrix(.05465 0 0 .05465 47.047 12.693)"/><path d="M181.983 61.675h2.816v.38h-1.181v2.949h-.453v-2.95h-1.182v-.379m3.262 0h.67l.85 2.265.854-2.265h.671v3.329h-.44V62.08l-.857 2.283h-.453l-.858-2.283v2.923h-.437v-3.329" style="fill:#294172;enable-background:new" transform="matrix(.05465 0 0 .05465 61.615 31.567)"/><path d="M54.061 31.075a5.292 5.292 0 0 0-5.292 5.292 5.292 5.292 0 0 0 5.292 5.291 5.292 5.292 0 0 0 5.292-5.291 5.292 5.292 0 0 0-5.292-5.292zm0 .748a4.543 4.543 0 0 1 4.543 4.544 4.543 4.543 0 0 1-4.543 4.543 4.543 4.543 0 0 1-4.543-4.543 4.543 4.543 0 0 1 4.543-4.544z" style="color:#000;clip-rule:nonzero;display:inline;overflow:visible;visibility:visible;opacity:1;isolation:auto;mix-blend-mode:normal;color-interpolation:sRGB;color-interpolation-filters:linearRGB;solid-color:#000;solid-opacity:1;fill:#ffc107;fill-opacity:1;fill-rule:nonzero;stroke:none;stroke-width:1.34766;stroke-linecap:butt;stroke-linejoin:bevel;stroke-miterlimit:4;stroke-dasharray:none;stroke-dashoffset:0;stroke-opacity:1;marker:none;color-rendering:auto;image-rendering:auto;shape-rendering:auto;text-rendering:auto;enable-background:accumulate"/><rect ry=".028" y="33.89" x="51.132" height=".811" width="5.859" style="opacity:1;fill:#ffc107;fill-opacity:1;stroke:#ffc107;stroke-width:.350057;stroke-linecap:butt;stroke-linejoin:round;stroke-miterlimit:4;stroke-dasharray:none;stroke-dashoffset:0;stroke-opacity:1;paint-order:normal"/><path transform="matrix(.26458 0 0 .26458 48.767 31.073)" d="M10.557 15.932a.53.53 0 0 0-.532.53V30.52c0 .293.238.529.532.529h18.906a.529.529 0 0 0 .531-.53V16.464a.53.53 0 0 0-.531-.531H10.557zm6.418.976h6.07c.907 0 1.637.73 1.637 1.637s-.73 1.637-1.637 1.637h-6.07c-.907 0-1.637-.73-1.637-1.637s.73-1.637 1.637-1.637z" style="opacity:1;fill:#ffc107;fill-opacity:1;stroke:#ffc107;stroke-width:1.47024;stroke-linecap:butt;stroke-linejoin:round;stroke-miterlimit:4;stroke-dasharray:none;stroke-dashoffset:0;stroke-opacity:1;paint-order:normal"/><g><g aria-label="staging instance" style="font-style:normal;font-variant:normal;font-weight:400;font-stretch:normal;font-size:54.8649px;line-height:1.25;font-family:Comfortaa;-inkscape-font-specification:Comfortaa;letter-spacing:0;word-spacing:0;fill:#000;fill-opacity:1;stroke:none;stroke-width:4.84102"><path d="M40.155 65.435q-3.73 0-7.022-1.152-3.292-1.152-5.158-3.018-.713-.713-.713-1.7 0-1.317 1.097-2.14 1.043-.769 1.92-.769 1.098 0 2.086.988 1.042 1.152 3.127 2.03 2.085.823 4.444.823 3.127 0 4.828-1.042 1.756-1.043 1.756-2.799 0-1.7-1.701-2.798-1.7-1.152-5.761-1.92-10.534-2.03-10.534-8.669 0-2.688 1.591-4.553 1.591-1.866 4.17-2.798 2.578-.933 5.486-.933 3.567 0 6.365 1.152 2.853 1.152 4.499 3.182.713.878.713 1.756 0 .933-.933 1.7-.603.44-1.536.44-1.427 0-2.579-1.043-1.371-1.262-2.908-1.756-1.536-.548-3.73-.548-2.524 0-4.17.878-1.591.823-1.591 2.359 0 1.097.548 1.865.549.713 2.085 1.372 1.536.603 4.444 1.207 5.98 1.207 8.45 3.347 2.523 2.14 2.523 5.541 0 2.524-1.371 4.609-1.372 2.03-4.06 3.237-2.634 1.152-6.365 1.152zM71.812 59.729q.988 0 1.646.768.714.768.714 1.975t-.933 1.975q-.878.768-2.304.768h-.988q-2.688 0-4.938-1.371-2.194-1.427-3.456-3.84-1.262-2.415-1.262-5.432V41.02h-2.524q-1.152 0-1.865-.658-.714-.659-.714-1.646 0-1.098.714-1.756.713-.658 1.865-.658h2.524V28.4q0-1.207.768-1.975t1.975-.768q1.207 0 1.975.768t.768 1.975v7.9h4.664q1.152 0 1.865.659.713.658.713 1.756 0 .987-.713 1.646-.713.658-1.865.658h-4.664v13.552q0 2.194 1.207 3.676 1.207 1.48 2.963 1.48zM94.636 34.985q4.225 0 7.626 2.03 3.457 1.975 5.432 5.486 2.03 3.457 2.03 7.736v12.235q0 1.207-.823 2.03-.768.768-1.975.768t-2.03-.768q-.768-.823-.768-2.03v-2.03q-1.92 2.36-4.664 3.676-2.743 1.317-5.925 1.317-3.95 0-7.187-1.975-3.183-1.975-5.048-5.432-1.81-3.511-1.81-7.79 0-4.28 1.975-7.737 1.975-3.511 5.431-5.486 3.512-2.03 7.736-2.03zm0 25.512q2.743 0 4.938-1.317 2.25-1.371 3.511-3.676 1.262-2.359 1.262-5.267 0-2.908-1.262-5.267-1.262-2.359-3.511-3.676-2.195-1.371-4.938-1.371t-4.993 1.371q-2.194 1.317-3.511 3.676-1.262 2.36-1.262 5.267 0 2.908 1.262 5.267 1.317 2.305 3.511 3.676 2.25 1.317 4.993 1.317zM131.67 34.985q4.334 0 7.736 1.975 3.456 1.92 5.377 5.377 1.975 3.456 1.975 7.9v11.851q0 4.334-1.92 7.9-1.92 3.567-5.432 5.597-3.457 2.085-7.846 2.085-3.95 0-7.352-1.591-3.401-1.537-5.706-4.444-.603-.769-.603-1.537 0-1.152 1.152-1.975.768-.494 1.536-.494 1.372 0 2.25 1.153 1.481 1.92 3.73 2.907 2.25 1.043 5.103 1.043 2.688 0 4.883-1.317 2.194-1.262 3.511-3.786 1.317-2.468 1.317-5.925v-2.688q-1.7 3.017-4.499 4.718-2.798 1.7-6.31 1.7-4.06 0-7.296-1.92-3.183-1.975-4.993-5.431-1.756-3.457-1.756-7.846 0-4.444 1.92-7.9 1.92-3.457 5.377-5.377 3.457-1.975 7.846-1.975zm0 25.512q2.798 0 4.993-1.317 2.249-1.317 3.456-3.62 1.262-2.36 1.262-5.323 0-2.962-1.262-5.322-1.207-2.359-3.456-3.676-2.195-1.316-4.993-1.316-2.798 0-5.048 1.316-2.194 1.317-3.456 3.676-1.262 2.36-1.262 5.322 0 2.963 1.262 5.322 1.262 2.304 3.456 3.621 2.25 1.317 5.048 1.317zM158.444 65.215q-1.207 0-2.03-.768-.768-.823-.768-2.03V38.002q0-1.262.768-2.03.823-.768 2.03-.768 1.262 0 2.03.768.768.768.768 2.03v24.415q0 1.207-.768 2.03-.768.768-2.03.768zm0-34.894q-1.481 0-2.579-1.042-1.042-1.097-1.042-2.579 0-1.481 1.042-2.524 1.098-1.097 2.579-1.097t2.524 1.097q1.097 1.043 1.097 2.524 0 1.482-1.097 2.579-1.043 1.042-2.524 1.042zM186.59 34.93q3.785 0 6.803 1.646 3.017 1.646 4.718 4.828 1.7 3.127 1.7 7.571v13.497q0 1.207-.822 2.03-.768.768-1.975.768t-2.03-.768q-.768-.823-.768-2.03V48.975q0-4.444-2.414-6.693-2.36-2.304-6.31-2.304-2.304 0-4.224.932-1.866.933-2.963 2.524-1.043 1.591-1.043 3.566v15.472q0 1.207-.768 2.03-.768.768-2.03.768-1.207 0-2.03-.768-.768-.823-.768-2.03v-24.47q0-1.262.768-2.03.823-.768 2.03-.768 1.262 0 2.03.768.768.768.768 2.03v.604q1.756-1.756 4.17-2.688 2.414-.988 5.157-.988zM222.69 34.985q4.335 0 7.736 1.975 3.457 1.92 5.377 5.377 1.975 3.456 1.975 7.9v11.851q0 4.334-1.92 7.9-1.92 3.567-5.432 5.597-3.456 2.085-7.845 2.085-3.95 0-7.352-1.591-3.402-1.537-5.706-4.444-.604-.769-.604-1.537 0-1.152 1.153-1.975.768-.494 1.536-.494 1.371 0 2.25 1.153 1.48 1.92 3.73 2.907 2.25 1.043 5.103 1.043 2.688 0 4.883-1.317 2.194-1.262 3.51-3.786 1.318-2.468 1.318-5.925v-2.688q-1.701 3.017-4.5 4.718-2.797 1.7-6.309 1.7-4.06 0-7.297-1.92-3.182-1.975-4.992-5.431-1.756-3.457-1.756-7.846 0-4.444 1.92-7.9 1.92-3.457 5.377-5.377 3.456-1.975 7.846-1.975zm0 25.512q2.799 0 4.993-1.317 2.25-1.317 3.457-3.62 1.262-2.36 1.262-5.323 0-2.962-1.262-5.322-1.207-2.359-3.457-3.676-2.194-1.316-4.992-1.316-2.799 0-5.048 1.316-2.195 1.317-3.457 3.676-1.261 2.36-1.261 5.322 0 2.963 1.261 5.322 1.262 2.304 3.457 3.621 2.25 1.317 5.048 1.317zM265.54 65.215q-1.207 0-2.03-.768-.768-.823-.768-2.03V38.002q0-1.262.768-2.03.823-.768 2.03-.768 1.262 0 2.03.768.768.768.768 2.03v24.415q0 1.207-.768 2.03-.768.768-2.03.768zm0-34.894q-1.481 0-2.579-1.042-1.042-1.097-1.042-2.579 0-1.481 1.042-2.524 1.098-1.097 2.579-1.097t2.524 1.097q1.097 1.043 1.097 2.524 0 1.482-1.097 2.579-1.043 1.042-2.524 1.042zM293.686 34.93q3.785 0 6.803 1.646 3.017 1.646 4.718 4.828 1.701 3.127 1.701 7.571v13.497q0 1.207-.823 2.03-.768.768-1.975.768t-2.03-.768q-.768-.823-.768-2.03V48.975q0-4.444-2.414-6.693-2.36-2.304-6.31-2.304-2.304 0-4.224.932-1.866.933-2.963 2.524-1.042 1.591-1.042 3.566v15.472q0 1.207-.769 2.03-.768.768-2.03.768-1.207 0-2.03-.768-.768-.823-.768-2.03v-24.47q0-1.262.768-2.03.823-.768 2.03-.768 1.262 0 2.03.768.769.768.769 2.03v.604q1.755-1.756 4.17-2.688 2.413-.988 5.157-.988zM327.098 65.435q-3.73 0-7.022-1.152-3.292-1.152-5.158-3.018-.713-.713-.713-1.7 0-1.317 1.097-2.14 1.043-.769 1.92-.769 1.098 0 2.085.988 1.043 1.152 3.128 2.03 2.085.823 4.444.823 3.127 0 4.828-1.042 1.756-1.043 1.756-2.799 0-1.7-1.701-2.798-1.701-1.152-5.761-1.92-10.534-2.03-10.534-8.669 0-2.688 1.59-4.553 1.592-1.866 4.17-2.798 2.58-.933 5.487-.933 3.566 0 6.364 1.152 2.853 1.152 4.5 3.182.713.878.713 1.756 0 .933-.933 1.7-.604.44-1.536.44-1.427 0-2.579-1.043-1.372-1.262-2.908-1.756-1.536-.548-3.73-.548-2.524 0-4.17.878-1.591.823-1.591 2.359 0 1.097.548 1.865.549.713 2.085 1.372 1.536.603 4.444 1.207 5.98 1.207 8.45 3.347 2.523 2.14 2.523 5.541 0 2.524-1.371 4.609-1.372 2.03-4.06 3.237-2.634 1.152-6.365 1.152zM358.755 59.729q.988 0 1.646.768.713.768.713 1.975t-.932 1.975q-.878.768-2.305.768h-.987q-2.689 0-4.938-1.371-2.195-1.427-3.457-3.84-1.261-2.415-1.261-5.432V41.02h-2.524q-1.152 0-1.866-.658-.713-.659-.713-1.646 0-1.098.713-1.756.714-.658 1.866-.658h2.524V28.4q0-1.207.768-1.975t1.975-.768q1.207 0 1.975.768t.768 1.975v7.9h4.664q1.152 0 1.865.659.713.658.713 1.756 0 .987-.713 1.646-.713.658-1.865.658h-4.664v13.552q0 2.194 1.207 3.676 1.207 1.48 2.963 1.48zM381.579 34.985q4.225 0 7.626 2.03 3.457 1.975 5.432 5.486 2.03 3.457 2.03 7.736v12.235q0 1.207-.823 2.03-.768.768-1.975.768t-2.03-.768q-.768-.823-.768-2.03v-2.03q-1.92 2.36-4.664 3.676-2.743 1.317-5.925 1.317-3.95 0-7.188-1.975-3.182-1.975-5.047-5.432-1.81-3.511-1.81-7.79 0-4.28 1.974-7.737 1.976-3.511 5.432-5.486 3.511-2.03 7.736-2.03zm0 25.512q2.743 0 4.938-1.317 2.25-1.371 3.511-3.676 1.262-2.359 1.262-5.267 0-2.908-1.262-5.267-1.262-2.359-3.511-3.676-2.195-1.371-4.938-1.371t-4.993 1.371q-2.194 1.317-3.511 3.676-1.262 2.36-1.262 5.267 0 2.908 1.262 5.267 1.317 2.305 3.511 3.676 2.25 1.317 4.993 1.317zM419.93 34.93q3.785 0 6.803 1.646 3.017 1.646 4.718 4.828 1.7 3.127 1.7 7.571v13.497q0 1.207-.822 2.03-.768.768-1.975.768t-2.03-.768q-.768-.823-.768-2.03V48.975q0-4.444-2.414-6.693-2.36-2.304-6.31-2.304-2.304 0-4.224.932-1.866.933-2.963 2.524-1.043 1.591-1.043 3.566v15.472q0 1.207-.768 2.03-.768.768-2.03.768-1.207 0-2.03-.768-.768-.823-.768-2.03v-24.47q0-1.262.768-2.03.823-.768 2.03-.768 1.262 0 2.03.768.768.768.768 2.03v.604q1.756-1.756 4.17-2.688 2.414-.988 5.158-.988zM456.03 65.435q-4.334 0-7.79-1.975-3.457-1.975-5.432-5.432-1.92-3.511-1.92-7.79 0-4.39 1.865-7.846 1.92-3.512 5.322-5.432 3.402-1.975 7.681-1.975 6.474 0 10.754 4.938.548.603.548 1.426 0 1.207-1.207 2.03-.548.384-1.262.384-1.261 0-2.14-.987-1.37-1.482-3.017-2.14-1.59-.713-3.676-.713-4.224 0-6.858 2.853-2.633 2.798-2.633 7.461 0 2.963 1.207 5.322 1.262 2.304 3.456 3.621 2.25 1.317 5.103 1.317 3.73 0 6.035-1.92 1.042-.768 2.03-.768.768 0 1.426.493 1.043.878 1.043 1.976 0 .823-.659 1.48-3.95 3.677-9.875 3.677zM502.337 49.743q0 1.043-.714 1.756-.713.659-1.81.659h-20.849q.604 3.84 3.457 6.2 2.907 2.358 7.077 2.358 1.646 0 3.402-.603 1.81-.604 2.962-1.481.769-.604 1.811-.604 1.042 0 1.646.549.988.823.988 1.865 0 .988-.878 1.646-1.866 1.481-4.664 2.414-2.743.933-5.267.933-4.499 0-8.065-1.92-3.566-1.976-5.596-5.432-1.975-3.457-1.975-7.846t1.865-7.845q1.92-3.512 5.267-5.432 3.402-1.975 7.681-1.975 4.225 0 7.297 1.865 3.073 1.866 4.719 5.212 1.646 3.347 1.646 7.681zm-13.662-10.04q-4.005 0-6.529 2.195-2.469 2.194-3.127 5.87h18.27q-.494-3.676-2.743-5.87-2.25-2.195-5.87-2.195z" style="font-style:normal;font-variant:normal;font-weight:700;font-stretch:normal;font-size:54.8649px;font-family:Comfortaa;-inkscape-font-specification:'Comfortaa Bold';fill:#ffc107;fill-opacity:1;stroke-width:4.84102" transform="matrix(.05465 0 0 .05465 96.969 31.568)"/></g></g></g></svg>