<svg xmlns="http://www.w3.org/2000/svg" viewBox="0 0 75.757 10.583" height="40" width="286.327"><g transform="translate(-48.767 -31.073)"><text y="40.575" x="59.2" style="font-style:normal;font-weight:400;line-height:0%;font-family:sans-serif;letter-spacing:0;word-spacing:0;fill:#555753;fill-opacity:1;stroke:none;stroke-width:.202942px;stroke-linecap:butt;stroke-linejoin:miter;stroke-opacity:1" xml:space="preserve" transform="matrix(.61336 0 0 .61336 25.104 14.58)"><tspan style="font-style:normal;font-variant:normal;font-weight:400;font-stretch:normal;font-size:8.11767px;line-height:1.25;font-family:Montserrat;-inkscape-font-specification:Montserrat;fill:#555753;fill-opacity:1;stroke-width:.202942px" y="40.575" x="59.2">PACKAGER DASHBOARD</tspan></text><path d="M316.774 397.581h-20.54c.333 4.452 3.922 7.776 8.708 7.776 3.39 0 6.314-1.396 8.64-3.655.466-.467.998-.6 1.596-.6.798 0 1.596.4 2.127 1.064.333.466.532.998.532 1.529 0 .731-.333 1.528-.931 2.127-2.792 2.99-7.51 4.985-12.164 4.985-8.442 0-15.22-6.78-15.22-15.221 0-8.442 6.58-15.221 15.02-15.221 8.376 0 14.624 6.513 14.624 15.087 0 1.265-1.13 2.129-2.392 2.129zm-12.231-11.765c-4.453 0-7.51 2.925-8.175 7.177h16.35c-.598-4.053-3.788-7.177-8.175-7.177zM375.463 410.808c-8.44 0-15.22-6.78-15.22-15.222 0-8.441 6.78-15.22 15.22-15.22 8.443 0 15.222 6.779 15.222 15.22 0 8.442-6.78 15.222-15.222 15.222zm0-24.66c-5.316 0-8.773 4.254-8.773 9.438 0 5.184 3.457 9.439 8.773 9.439 5.318 0 8.775-4.255 8.775-9.439s-3.457-9.438-8.775-9.438zM412.662 380.366c-4.46 0-7.41 1.319-10.014 4.63l-.24-1.54a3.26 3.26 0 0 0-6.496.41v23.419a3.262 3.262 0 0 0 3.257 3.257 3.263 3.263 0 0 0 3.257-3.257v-12.562c0-5.716 4.985-8.574 10.236-8.574 1.595 0 2.858-1.33 2.858-2.926a2.835 2.835 0 0 0-2.858-2.857zM447.026 395.586c.067-8.175-5.783-15.22-15.222-15.22-8.442 0-15.288 6.779-15.288 15.22 0 8.442 6.647 15.222 14.69 15.222 4.015 0 7.627-2.066 9.239-4.225l.793 2.014a2.99 2.99 0 0 0 5.788-1.048v-7.807zm-15.222 9.439c-5.318 0-8.774-4.255-8.774-9.439s3.456-9.438 8.774-9.438c5.317 0 8.774 4.254 8.774 9.438 0 5.184-3.457 9.439-8.774 9.439zM355.015 368.334c0-1.794-1.462-3.19-3.257-3.19-1.794 0-3.257 1.396-3.257 3.19v17.15c-1.661-3.058-5.25-5.118-9.505-5.118-8.64 0-14.424 6.513-14.424 15.22 0 8.708 5.983 15.222 14.424 15.222 3.765 0 7.03-1.554 8.986-4.255l.723 1.834a3.25 3.25 0 0 0 6.31-1.088v-38.965zm-15.221 36.69c-5.318 0-8.708-4.254-8.708-9.438 0-5.184 3.39-9.438 8.708-9.438 5.317 0 8.707 4.055 8.707 9.438 0 5.384-3.39 9.439-8.707 9.439zM287.216 365.34a12.37 12.37 0 0 0-1.801-.132c-6.732 0-12.208 5.477-12.208 12.208v3.813h-3.989a2.667 2.667 0 0 0-2.659 2.658c0 1.463 1.197 2.938 2.66 2.938h3.987v20.46a3.263 3.263 0 0 0 3.257 3.257 3.263 3.263 0 0 0 3.257-3.257v-20.46h4.41c1.462 0 2.658-1.475 2.658-2.938a2.666 2.666 0 0 0-2.658-2.658h-4.407v-3.813c0-3.139 2.553-6.115 5.692-6.115.282 0 .567.021.846.062 1.78.264 3.436-.543 3.7-2.323a3.259 3.259 0 0 0-2.745-3.7z" style="fill:#3c6eb4" transform="matrix(.05465 0 0 .05465 47.047 12.693)"/><path d="M181.983 61.675h2.816v.38h-1.181v2.949h-.453v-2.95h-1.182v-.379m3.262 0h.67l.85 2.265.854-2.265h.671v3.329h-.44V62.08l-.857 2.283h-.453l-.858-2.283v2.923h-.437v-3.329" style="fill:#294172;enable-background:new" transform="matrix(.05465 0 0 .05465 61.615 31.567)"/><path d="M54.061 31.075a5.292 5.292 0 0 0-5.292 5.292 5.292 5.292 0 0 0 5.292 5.291 5.292 5.292 0 0 0 5.292-5.291 5.292 5.292 0 0 0-5.292-5.292zm0 .748a4.543 4.543 0 0 1 4.543 4.544 4.543 4.543 0 0 1-4.543 4.543 4.543 4.543 0 0 1-4.543-4.543 4.543 4.543 0 0 1 4.543-4.544z" style="color:#000;clip-rule:nonzero;display:inline;overflow:visible;visibility:visible;opacity:1;isolation:auto;mix-blend-mode:normal;color-interpolation:sRGB;color-interpolation-filters:linearRGB;solid-color:#000;solid-opacity:1;fill:#3c6eb4;fill-opacity:1;fill-rule:nonzero;stroke:none;stroke-width:1.34766;stroke-linecap:butt;stroke-linejoin:bevel;stroke-miterlimit:4;stroke-dasharray:none;stroke-dashoffset:0;stroke-opacity:1;marker:none;color-rendering:auto;image-rendering:auto;shape-rendering:auto;text-rendering:auto;enable-background:accumulate"/><rect ry=".028" y="33.89" x="51.132" height=".811" width="5.859" style="opacity:1;fill:#3c6eb4;fill-opacity:1;stroke:#3c6eb4;stroke-width:.350057;stroke-linecap:butt;stroke-linejoin:round;stroke-miterlimit:4;stroke-dasharray:none;stroke-dashoffset:0;stroke-opacity:1;paint-order:normal"/><rect style="opacity:1;fill:#3c6eb4;fill-opacity:1;stroke:#3c6eb4;stroke-width:.389459;stroke-linecap:butt;stroke-linejoin:round;stroke-miterlimit:4;stroke-dasharray:none;stroke-dashoffset:0;stroke-opacity:1;paint-order:normal" width="5.283" height="4" x="51.419" y="35.289" ry=".14"/><rect style="fill:#fdfefe;fill-opacity:1;stroke-width:.4;stroke-linejoin:round;stroke-miterlimit:4;stroke-dasharray:none" width="1.909" height=".522" x="53.106" y="35.547" ry=".261"/></g></svg>