<svg xmlns="http://www.w3.org/2000/svg" viewBox="0 0 75.757 10.583" height="40" width="286.327"><g transform="translate(-48.767 -31.073)"><g aria-label="PACKAGER DASHBOARD" style="font-style:normal;font-weight:400;line-height:0%;font-family:sans-serif;letter-spacing:0;word-spacing:0;fill:#555753;fill-opacity:1;stroke:none;stroke-width:.202942px;stroke-linecap:butt;stroke-linejoin:miter;stroke-opacity:1"><path d="M62.252 34.893h-2.127v5.682h.6v-1.794h1.527c1.445 0 2.322-.73 2.322-1.94 0-1.218-.877-1.948-2.322-1.948zm-.016 3.36h-1.51v-2.84h1.51c1.136 0 1.737.519 1.737 1.428 0 .893-.6 1.412-1.737 1.412zM69.834 40.575h.633l-2.598-5.682h-.592l-2.598 5.682h.625l.682-1.518h3.166zm-3.629-2.005 1.364-3.052 1.364 3.052zM73.795 40.624c.836 0 1.583-.284 2.086-.836l-.381-.382c-.463.479-1.031.682-1.68.682-1.372 0-2.403-1.007-2.403-2.354 0-1.348 1.03-2.354 2.403-2.354.649 0 1.217.203 1.68.673l.381-.381c-.503-.552-1.25-.828-2.078-.828-1.713 0-2.979 1.226-2.979 2.89 0 1.664 1.266 2.89 2.971 2.89zM81.247 40.575h.715l-2.63-3.109 2.46-2.573h-.69l-3.337 3.433v-3.433h-.601v5.682h.6v-1.494l1.162-1.177Z" style="font-style:normal;font-variant:normal;font-weight:400;font-stretch:normal;font-size:8.11767px;line-height:1.25;font-family:Montserrat;-inkscape-font-specification:Montserrat;fill:#555753;fill-opacity:1;stroke-width:.202942px" transform="matrix(.61336 0 0 .61336 25.104 14.58)"/><path d="M86.962 40.575h.633l-2.597-5.682h-.593l-2.598 5.682h.625l.682-1.518h3.166zm-3.629-2.005 1.364-3.052 1.364 3.052zM92.458 39.65c-.439.316-.942.438-1.486.438-1.396 0-2.427-1.007-2.427-2.354 0-1.356 1.03-2.354 2.435-2.354.666 0 1.234.195 1.713.665l.374-.381c-.504-.544-1.25-.82-2.111-.82-1.737 0-3.004 1.226-3.004 2.89 0 1.664 1.267 2.89 2.996 2.89.787 0 1.55-.244 2.086-.723v-2.167h-.576zM95.331 40.055v-2.11h2.939v-.512H95.33v-2.02h3.296v-.52h-3.896v5.682h4.018v-.52zM104.7 40.575l-1.389-1.948c.828-.268 1.299-.893 1.299-1.786 0-1.218-.877-1.948-2.322-1.948h-2.127v5.682h.601v-1.802h1.526c.163 0 .309-.008.455-.024l1.299 1.826zm-2.428-2.314h-1.51v-2.849h1.51c1.136 0 1.737.52 1.737 1.429 0 .893-.6 1.42-1.737 1.42zM108.157 40.575h2.314c1.818 0 3.044-1.169 3.044-2.841 0-1.672-1.226-2.841-3.044-2.841h-2.314zm.601-.52v-4.643h1.68c1.51 0 2.484.958 2.484 2.322s-.974 2.321-2.484 2.321zM119.027 40.575h.633l-2.598-5.682h-.592l-2.598 5.682h.625l.682-1.518h3.166zm-3.629-2.005 1.364-3.052 1.364 3.052zM122.168 40.624c1.453 0 2.119-.715 2.119-1.55 0-2.07-3.499-1.13-3.499-2.688 0-.568.463-1.03 1.502-1.03.503 0 1.072.154 1.559.47l.203-.479c-.455-.316-1.12-.503-1.762-.503-1.445 0-2.094.722-2.094 1.559 0 2.102 3.498 1.144 3.498 2.703 0 .56-.462 1.006-1.526 1.006-.747 0-1.469-.292-1.875-.69l-.235.463c.422.438 1.258.739 2.11.739zM129.75 34.893v2.532h-3.555v-2.532h-.601v5.682h.6v-2.622h3.556v2.622h.593v-5.682zM135.774 37.645c.52-.212.868-.642.868-1.291 0-.926-.73-1.461-1.997-1.461h-2.451v5.682h2.614c1.42 0 2.134-.552 2.134-1.518 0-.771-.438-1.25-1.168-1.412zm-1.17-2.257c.91 0 1.437.349 1.437 1.03 0 .683-.527 1.032-1.436 1.032h-1.81v-2.062zm.195 4.692h-2.005v-2.135h2.005c.999 0 1.543.325 1.543 1.063 0 .747-.544 1.072-1.543 1.072zM140.798 40.624c1.705 0 2.98-1.226 2.98-2.89 0-1.664-1.275-2.89-2.98-2.89-1.72 0-2.987 1.234-2.987 2.89 0 1.656 1.266 2.89 2.987 2.89zm0-.536c-1.372 0-2.394-.999-2.394-2.354 0-1.356 1.022-2.354 2.394-2.354 1.364 0 2.379.998 2.379 2.354 0 1.355-1.015 2.354-2.379 2.354zM149.29 40.575h.633l-2.598-5.682h-.593l-2.597 5.682h.625l.682-1.518h3.166zm-3.63-2.005 1.365-3.052 1.363 3.052zM155.402 40.575l-1.388-1.948c.828-.268 1.299-.893 1.299-1.786 0-1.218-.877-1.948-2.322-1.948h-2.127v5.682h.601v-1.802h1.526c.162 0 .309-.008.455-.024l1.298 1.826zm-2.427-2.314h-1.51v-2.849h1.51c1.136 0 1.737.52 1.737 1.429 0 .893-.6 1.42-1.737 1.42zM156.733 40.575h2.314c1.818 0 3.044-1.169 3.044-2.841 0-1.672-1.226-2.841-3.044-2.841h-2.314zm.601-.52v-4.643h1.68c1.51 0 2.484.958 2.484 2.322s-.974 2.321-2.484 2.321z" style="font-style:normal;font-variant:normal;font-weight:400;font-stretch:normal;font-size:8.11767px;line-height:1.25;font-family:Montserrat;-inkscape-font-specification:Montserrat;fill:#555753;fill-opacity:1;stroke-width:.202942px" transform="matrix(.61336 0 0 .61336 25.104 14.58)"/></g><path d="M316.774 397.581h-20.54c.333 4.452 3.922 7.776 8.708 7.776 3.39 0 6.314-1.396 8.64-3.655.466-.467.998-.6 1.596-.6.798 0 1.596.4 2.127 1.064.333.466.532.998.532 1.529 0 .731-.333 1.528-.931 2.127-2.792 2.99-7.51 4.985-12.164 4.985-8.442 0-15.22-6.78-15.22-15.221 0-8.442 6.58-15.221 15.02-15.221 8.376 0 14.624 6.513 14.624 15.087 0 1.265-1.13 2.129-2.392 2.129zm-12.231-11.765c-4.453 0-7.51 2.925-8.175 7.177h16.35c-.598-4.053-3.788-7.177-8.175-7.177zM375.463 410.808c-8.44 0-15.22-6.78-15.22-15.222 0-8.441 6.78-15.22 15.22-15.22 8.443 0 15.222 6.779 15.222 15.22 0 8.442-6.78 15.222-15.222 15.222zm0-24.66c-5.316 0-8.773 4.254-8.773 9.438 0 5.184 3.457 9.439 8.773 9.439 5.318 0 8.775-4.255 8.775-9.439s-3.457-9.438-8.775-9.438zM412.662 380.366c-4.46 0-7.41 1.319-10.014 4.63l-.24-1.54a3.26 3.26 0 0 0-6.496.41v23.419a3.262 3.262 0 0 0 3.257 3.257 3.263 3.263 0 0 0 3.257-3.257v-12.562c0-5.716 4.985-8.574 10.236-8.574 1.595 0 2.858-1.33 2.858-2.926a2.835 2.835 0 0 0-2.858-2.857zM447.026 395.586c.067-8.175-5.783-15.22-15.222-15.22-8.442 0-15.288 6.779-15.288 15.22 0 8.442 6.647 15.222 14.69 15.222 4.015 0 7.627-2.066 9.239-4.225l.793 2.014a2.99 2.99 0 0 0 5.788-1.048v-7.807zm-15.222 9.439c-5.318 0-8.774-4.255-8.774-9.439s3.456-9.438 8.774-9.438c5.317 0 8.774 4.254 8.774 9.438 0 5.184-3.457 9.439-8.774 9.439zM355.015 368.334c0-1.794-1.462-3.19-3.257-3.19-1.794 0-3.257 1.396-3.257 3.19v17.15c-1.661-3.058-5.25-5.118-9.505-5.118-8.64 0-14.424 6.513-14.424 15.22 0 8.708 5.983 15.222 14.424 15.222 3.765 0 7.03-1.554 8.986-4.255l.723 1.834a3.25 3.25 0 0 0 6.31-1.088v-38.965zm-15.221 36.69c-5.318 0-8.708-4.254-8.708-9.438 0-5.184 3.39-9.438 8.708-9.438 5.317 0 8.707 4.055 8.707 9.438 0 5.384-3.39 9.439-8.707 9.439zM287.216 365.34a12.37 12.37 0 0 0-1.801-.132c-6.732 0-12.208 5.477-12.208 12.208v3.813h-3.989a2.667 2.667 0 0 0-2.659 2.658c0 1.463 1.197 2.938 2.66 2.938h3.987v20.46a3.263 3.263 0 0 0 3.257 3.257 3.263 3.263 0 0 0 3.257-3.257v-20.46h4.41c1.462 0 2.658-1.475 2.658-2.938a2.666 2.666 0 0 0-2.658-2.658h-4.407v-3.813c0-3.139 2.553-6.115 5.692-6.115.282 0 .567.021.846.062 1.78.264 3.436-.543 3.7-2.323a3.259 3.259 0 0 0-2.745-3.7z" style="fill:#3c6eb4" transform="matrix(.05465 0 0 .05465 47.047 12.693)"/><path d="M181.983 61.675h2.816v.38h-1.181v2.949h-.453v-2.95h-1.182v-.379m3.262 0h.67l.85 2.265.854-2.265h.671v3.329h-.44V62.08l-.857 2.283h-.453l-.858-2.283v2.923h-.437v-3.329" style="fill:#294172;enable-background:new" transform="matrix(.05465 0 0 .05465 61.615 31.567)"/><path d="M54.061 31.075a5.292 5.292 0 0 0-5.292 5.292 5.292 5.292 0 0 0 5.292 5.291 5.292 5.292 0 0 0 5.292-5.291 5.292 5.292 0 0 0-5.292-5.292zm0 .748a4.543 4.543 0 0 1 4.543 4.544 4.543 4.543 0 0 1-4.543 4.543 4.543 4.543 0 0 1-4.543-4.543 4.543 4.543 0 0 1 4.543-4.544z" style="color:#000;clip-rule:nonzero;display:inline;overflow:visible;visibility:visible;opacity:1;isolation:auto;mix-blend-mode:normal;color-interpolation:sRGB;color-interpolation-filters:linearRGB;solid-color:#000;solid-opacity:1;fill:#3c6eb4;fill-opacity:1;fill-rule:nonzero;stroke:none;stroke-width:1.34766;stroke-linecap:butt;stroke-linejoin:bevel;stroke-miterlimit:4;stroke-dasharray:none;stroke-dashoffset:0;stroke-opacity:1;marker:none;color-rendering:auto;image-rendering:auto;shape-rendering:auto;text-rendering:auto;enable-background:accumulate"/><rect ry=".028" y="33.89" x="51.132" height=".811" width="5.859" style="opacity:1;fill:#3c6eb4;fill-opacity:1;stroke:#3c6eb4;stroke-width:.350057;stroke-linecap:butt;stroke-linejoin:round;stroke-miterlimit:4;stroke-dasharray:none;stroke-dashoffset:0;stroke-opacity:1;paint-order:normal"/><path transform="matrix(.26458 0 0 .26458 48.767 31.073)" d="M10.557 15.932a.53.53 0 0 0-.532.53V30.52c0 .293.238.529.532.529h18.906a.529.529 0 0 0 .531-.53V16.464a.53.53 0 0 0-.531-.531H10.557zm6.418.976h6.07c.907 0 1.637.73 1.637 1.637s-.73 1.637-1.637 1.637h-6.07c-.907 0-1.637-.73-1.637-1.637s.73-1.637 1.637-1.637z" style="opacity:1;fill:#3c6eb4;fill-opacity:1;stroke:#3c6eb4;stroke-width:1.47024;stroke-linecap:butt;stroke-linejoin:round;stroke-miterlimit:4;stroke-dasharray:none;stroke-dashoffset:0;stroke-opacity:1;paint-order:normal"/></g></svg>