<?xml version="1.0" encoding="UTF-8" standalone="no"?>
<svg
   xmlns:dc="http://purl.org/dc/elements/1.1/"
   xmlns:cc="http://creativecommons.org/ns#"
   xmlns:rdf="http://www.w3.org/1999/02/22-rdf-syntax-ns#"
   xmlns:svg="http://www.w3.org/2000/svg"
   xmlns="http://www.w3.org/2000/svg"
   xmlns:sodipodi="http://sodipodi.sourceforge.net/DTD/sodipodi-0.dtd"
   xmlns:inkscape="http://www.inkscape.org/namespaces/inkscape"
   width="75.757393mm"
   height="10.583333mm"
   viewBox="0 0 75.757393 10.583333"
   id="svg2"
   version="1.1"
   inkscape:version="1.0 (4035a4fb49, 2020-05-01)"
   sodipodi:docname="logo.svg"
   inkscape:export-filename="/home/rlerch/Source/fedora-bootstrap/logo.png"
   inkscape:export-xdpi="192"
   inkscape:export-ydpi="192">
  <defs
     id="defs4">
    <clipPath
       clipPathUnits="userSpaceOnUse"
       id="clipPath4574">
      <circle
         style="color:#000000;clip-rule:nonzero;display:inline;overflow:visible;visibility:visible;opacity:1;isolation:auto;mix-blend-mode:normal;color-interpolation:sRGB;color-interpolation-filters:linearRGB;solid-color:#000000;solid-opacity:1;fill:#ce5c00;fill-opacity:1;fill-rule:nonzero;stroke:none;stroke-width:0.75064;stroke-linecap:butt;stroke-linejoin:bevel;stroke-miterlimit:4;stroke-dasharray:none;stroke-dashoffset:0;stroke-opacity:1;marker:none;color-rendering:auto;image-rendering:auto;shape-rendering:auto;text-rendering:auto;enable-background:accumulate"
         id="circle4576"
         cx="93.498596"
         cy="-16.921354"
         r="5.5046906"
         transform="rotate(60)" />
    </clipPath>
  </defs>
  <sodipodi:namedview
     id="base"
     pagecolor="#ffffff"
     bordercolor="#666666"
     borderopacity="1.0"
     inkscape:pageopacity="0.0"
     inkscape:pageshadow="2"
     inkscape:zoom="2.8284271"
     inkscape:cx="78.148998"
     inkscape:cy="-64.354671"
     inkscape:document-units="mm"
     inkscape:current-layer="g4595"
     showgrid="false"
     fit-margin-top="0"
     fit-margin-left="0"
     fit-margin-right="0"
     fit-margin-bottom="0"
     inkscape:window-width="1920"
     inkscape:window-height="1136"
     inkscape:window-x="1920"
     inkscape:window-y="27"
     inkscape:window-maximized="1"
     inkscape:document-rotation="0" />
  <metadata
     id="metadata7">
    <rdf:RDF>
      <cc:Work
         rdf:about="">
        <dc:format>image/svg+xml</dc:format>
        <dc:type
           rdf:resource="http://purl.org/dc/dcmitype/StillImage" />
        <dc:title />
      </cc:Work>
    </rdf:RDF>
  </metadata>
  <g
     inkscape:label="Layer 1"
     inkscape:groupmode="layer"
     id="layer1"
     transform="translate(-48.766898,-31.073162)">
    <g
       id="g4714">
      <g
         transform="matrix(0.45619308,0,0,0.45619308,25.303771,-9.145808)"
         id="g4595">
        <g
           transform="matrix(0.92003825,0,0,0.92003825,3.8994993,8.9046582)"
           id="g4624">
          <g
             style="font-style:normal;font-weight:normal;line-height:0%;font-family:sans-serif;letter-spacing:0px;word-spacing:0px;fill:#555753;fill-opacity:1;stroke:none;stroke-width:0.202942px;stroke-linecap:butt;stroke-linejoin:miter;stroke-opacity:1"
             id="text4225"
             transform="matrix(1.4613695,0,0,1.4613695,-4.7135332,46.848388)"
             aria-label="PACKAGER DASHBOARD">
            <path
               id="path155"
               style="font-style:normal;font-variant:normal;font-weight:normal;font-stretch:normal;font-size:8.11767px;line-height:1.25;font-family:Montserrat;-inkscape-font-specification:Montserrat;fill:#555753;fill-opacity:1;stroke-width:0.202942px"
               d="m 62.251898,34.892655 h -2.12683 v 5.682369 h 0.600708 v -1.794005 h 1.526122 c 1.444945,0 2.321653,-0.730591 2.321653,-1.940124 0,-1.21765 -0.876708,-1.94824 -2.321653,-1.94824 z m -0.01624,3.360715 h -1.509886 v -2.841185 h 1.509886 c 1.136474,0 1.737182,0.519531 1.737182,1.42871 0,0.892944 -0.600708,1.412475 -1.737182,1.412475 z" />
            <path
               id="path157"
               style="font-style:normal;font-variant:normal;font-weight:normal;font-stretch:normal;font-size:8.11767px;line-height:1.25;font-family:Montserrat;-inkscape-font-specification:Montserrat;fill:#555753;fill-opacity:1;stroke-width:0.202942px"
               d="m 69.833789,40.575024 h 0.633178 l -2.597655,-5.682369 h -0.59259 l -2.597654,5.682369 h 0.625061 l 0.681884,-1.518005 h 3.165891 z m -3.628599,-2.005065 1.363769,-3.052244 1.363768,3.052244 z" />
            <path
               id="path159"
               style="font-style:normal;font-variant:normal;font-weight:normal;font-stretch:normal;font-size:8.11767px;line-height:1.25;font-family:Montserrat;-inkscape-font-specification:Montserrat;fill:#555753;fill-opacity:1;stroke-width:0.202942px"
               d="m 73.795202,40.62373 c 0.83612,0 1.582945,-0.284119 2.086241,-0.83612 l -0.381531,-0.381531 c -0.462707,0.478943 -1.030944,0.681884 -1.680357,0.681884 -1.371886,0 -2.402831,-1.006591 -2.402831,-2.354124 0,-1.347533 1.030945,-2.354124 2.402831,-2.354124 0.649413,0 1.21765,0.202942 1.680357,0.673766 l 0.381531,-0.38153 c -0.503296,-0.552002 -1.250121,-0.828002 -2.078124,-0.828002 -1.712828,0 -2.979184,1.225768 -2.979184,2.88989 0,1.664122 1.266356,2.889891 2.971067,2.889891 z" />
            <path
               id="path161"
               style="font-style:normal;font-variant:normal;font-weight:normal;font-stretch:normal;font-size:8.11767px;line-height:1.25;font-family:Montserrat;-inkscape-font-specification:Montserrat;fill:#555753;fill-opacity:1;stroke-width:0.202942px"
               d="m 81.247223,40.575024 h 0.714355 l -2.630125,-3.109068 2.459654,-2.573301 h -0.690002 l -3.336362,3.433774 v -3.433774 h -0.600708 v 5.682369 h 0.600708 V 39.081372 L 78.92557,37.90431 Z" />
            <path
               id="path163"
               style="font-style:normal;font-variant:normal;font-weight:normal;font-stretch:normal;font-size:8.11767px;line-height:1.25;font-family:Montserrat;-inkscape-font-specification:Montserrat;fill:#555753;fill-opacity:1;stroke-width:0.202942px"
               d="m 86.962048,40.575024 h 0.633178 l -2.597654,-5.682369 h -0.59259 l -2.597655,5.682369 h 0.625061 l 0.681884,-1.518005 h 3.165891 z m -3.628599,-2.005065 1.363769,-3.052244 1.363768,3.052244 z" />
            <path
               id="path165"
               style="font-style:normal;font-variant:normal;font-weight:normal;font-stretch:normal;font-size:8.11767px;line-height:1.25;font-family:Montserrat;-inkscape-font-specification:Montserrat;fill:#555753;fill-opacity:1;stroke-width:0.202942px"
               d="m 92.457699,39.649609 c -0.438354,0.316589 -0.94165,0.438354 -1.485533,0.438354 -1.39624,0 -2.427184,-1.006591 -2.427184,-2.354124 0,-1.355651 1.030944,-2.354124 2.435301,-2.354124 0.665649,0 1.233886,0.194824 1.712829,0.665649 l 0.373412,-0.381531 c -0.503295,-0.543884 -1.250121,-0.819884 -2.110594,-0.819884 -1.737181,0 -3.003538,1.225768 -3.003538,2.88989 0,1.664122 1.266357,2.889891 2.995421,2.889891 0.787414,0 1.550475,-0.24353 2.086241,-0.722473 v -2.167418 h -0.576355 z" />
            <path
               id="path167"
               style="font-style:normal;font-variant:normal;font-weight:normal;font-stretch:normal;font-size:8.11767px;line-height:1.25;font-family:Montserrat;-inkscape-font-specification:Montserrat;fill:#555753;fill-opacity:1;stroke-width:0.202942px"
               d="m 95.331344,40.055493 v -2.110594 h 2.938596 v -0.511414 h -2.938596 v -2.0213 h 3.295774 v -0.51953 h -3.896482 v 5.682369 h 4.018247 v -0.519531 z" />
            <path
               id="path169"
               style="font-style:normal;font-variant:normal;font-weight:normal;font-stretch:normal;font-size:8.11767px;line-height:1.25;font-family:Montserrat;-inkscape-font-specification:Montserrat;fill:#555753;fill-opacity:1;stroke-width:0.202942px"
               d="m 104.69913,40.575024 -1.38812,-1.948241 c 0.828,-0.267883 1.29882,-0.892944 1.29882,-1.785888 0,-1.21765 -0.87671,-1.94824 -2.32165,-1.94824 h -2.12683 v 5.682369 h 0.60071 v -1.802123 h 1.52612 c 0.16235,0 0.30847,-0.0081 0.45459,-0.02435 l 1.29883,1.826476 z m -2.42719,-2.313536 h -1.50988 v -2.849303 h 1.50988 c 1.13648,0 1.73719,0.519531 1.73719,1.42871 0,0.892944 -0.60071,1.420593 -1.73719,1.420593 z" />
            <path
               id="path171"
               style="font-style:normal;font-variant:normal;font-weight:normal;font-stretch:normal;font-size:8.11767px;line-height:1.25;font-family:Montserrat;-inkscape-font-specification:Montserrat;fill:#555753;fill-opacity:1;stroke-width:0.202942px"
               d="m 108.15724,40.575024 h 2.31354 c 1.81836,0 3.04412,-1.168945 3.04412,-2.841185 0,-1.67224 -1.22576,-2.841184 -3.04412,-2.841184 h -2.31354 z m 0.60071,-0.519531 v -4.643308 h 1.68036 c 1.50988,0 2.484,0.957886 2.484,2.321654 0,1.363769 -0.97412,2.321654 -2.484,2.321654 z" />
            <path
               id="path173"
               style="font-style:normal;font-variant:normal;font-weight:normal;font-stretch:normal;font-size:8.11767px;line-height:1.25;font-family:Montserrat;-inkscape-font-specification:Montserrat;fill:#555753;fill-opacity:1;stroke-width:0.202942px"
               d="m 119.02679,40.575024 h 0.63318 l -2.59766,-5.682369 h -0.59259 l -2.59765,5.682369 h 0.62506 l 0.68188,-1.518005 h 3.16589 z m -3.6286,-2.005065 1.36377,-3.052244 1.36377,3.052244 z" />
            <path
               id="path175"
               style="font-style:normal;font-variant:normal;font-weight:normal;font-stretch:normal;font-size:8.11767px;line-height:1.25;font-family:Montserrat;-inkscape-font-specification:Montserrat;fill:#555753;fill-opacity:1;stroke-width:0.202942px"
               d="m 122.16832,40.62373 c 1.45306,0 2.11871,-0.714355 2.11871,-1.550475 0,-2.070006 -3.49872,-1.128356 -3.49872,-2.686949 0,-0.568237 0.46271,-1.030944 1.50177,-1.030944 0.5033,0 1.07154,0.154236 1.5586,0.470825 l 0.20294,-0.478943 c -0.45459,-0.316589 -1.12024,-0.503295 -1.76154,-0.503295 -1.44494,0 -2.09436,0.722472 -2.09436,1.558592 0,2.102477 3.49872,1.144592 3.49872,2.703184 0,0.56012 -0.46271,1.006591 -1.52612,1.006591 -0.74683,0 -1.4693,-0.292236 -1.87518,-0.690001 l -0.23542,0.462707 c 0.42212,0.438354 1.25824,0.738708 2.1106,0.738708 z" />
            <path
               id="path177"
               style="font-style:normal;font-variant:normal;font-weight:normal;font-stretch:normal;font-size:8.11767px;line-height:1.25;font-family:Montserrat;-inkscape-font-specification:Montserrat;fill:#555753;fill-opacity:1;stroke-width:0.202942px"
               d="m 129.75022,34.892655 v 2.532713 h -3.55554 v -2.532713 h -0.60071 v 5.682369 h 0.60071 v -2.622008 h 3.55554 v 2.622008 h 0.59259 v -5.682369 z" />
            <path
               id="path179"
               style="font-style:normal;font-variant:normal;font-weight:normal;font-stretch:normal;font-size:8.11767px;line-height:1.25;font-family:Montserrat;-inkscape-font-specification:Montserrat;fill:#555753;fill-opacity:1;stroke-width:0.202942px"
               d="m 135.77353,37.644545 c 0.51953,-0.21106 0.86859,-0.641296 0.86859,-1.29071 0,-0.925414 -0.73059,-1.46118 -1.99695,-1.46118 h -2.45154 v 5.682369 h 2.61389 c 1.4206,0 2.13495,-0.552002 2.13495,-1.518005 0,-0.771178 -0.43835,-1.250121 -1.16894,-1.412474 z m -1.16895,-2.256713 c 0.90918,0 1.43683,0.34906 1.43683,1.030945 0,0.681884 -0.52765,1.030944 -1.43683,1.030944 h -1.81024 v -2.061889 z m 0.19483,4.692014 h -2.00507 v -2.134947 h 2.00507 c 0.99847,0 1.54235,0.324706 1.54235,1.063414 0,0.746826 -0.54388,1.071533 -1.54235,1.071533 z" />
            <path
               id="path181"
               style="font-style:normal;font-variant:normal;font-weight:normal;font-stretch:normal;font-size:8.11767px;line-height:1.25;font-family:Montserrat;-inkscape-font-specification:Montserrat;fill:#555753;fill-opacity:1;stroke-width:0.202942px"
               d="m 140.79837,40.62373 c 1.70471,0 2.97918,-1.225769 2.97918,-2.889891 0,-1.664122 -1.27447,-2.88989 -2.97918,-2.88989 -1.72095,0 -2.9873,1.233885 -2.9873,2.88989 0,1.656005 1.26635,2.889891 2.9873,2.889891 z m 0,-0.535767 c -1.37189,0 -2.39471,-0.998473 -2.39471,-2.354124 0,-1.355651 1.02282,-2.354124 2.39471,-2.354124 1.36377,0 2.37848,0.998473 2.37848,2.354124 0,1.355651 -1.01471,2.354124 -2.37848,2.354124 z" />
            <path
               id="path183"
               style="font-style:normal;font-variant:normal;font-weight:normal;font-stretch:normal;font-size:8.11767px;line-height:1.25;font-family:Montserrat;-inkscape-font-specification:Montserrat;fill:#555753;fill-opacity:1;stroke-width:0.202942px"
               d="m 149.28943,40.575024 h 0.63318 l -2.59765,-5.682369 h -0.59259 l -2.59766,5.682369 h 0.62506 l 0.68189,-1.518005 h 3.16589 z m -3.6286,-2.005065 1.36377,-3.052244 1.36377,3.052244 z" />
            <path
               id="path185"
               style="font-style:normal;font-variant:normal;font-weight:normal;font-stretch:normal;font-size:8.11767px;line-height:1.25;font-family:Montserrat;-inkscape-font-specification:Montserrat;fill:#555753;fill-opacity:1;stroke-width:0.202942px"
               d="m 155.40203,40.575024 -1.38812,-1.948241 c 0.82801,-0.267883 1.29883,-0.892944 1.29883,-1.785888 0,-1.21765 -0.87671,-1.94824 -2.32165,-1.94824 h -2.12683 v 5.682369 h 0.6007 v -1.802123 h 1.52613 c 0.16235,0 0.30847,-0.0081 0.45459,-0.02435 l 1.29882,1.826476 z m -2.42718,-2.313536 h -1.50989 v -2.849303 h 1.50989 c 1.13648,0 1.73718,0.519531 1.73718,1.42871 0,0.892944 -0.6007,1.420593 -1.73718,1.420593 z" />
            <path
               id="path187"
               style="font-style:normal;font-variant:normal;font-weight:normal;font-stretch:normal;font-size:8.11767px;line-height:1.25;font-family:Montserrat;-inkscape-font-specification:Montserrat;fill:#555753;fill-opacity:1;stroke-width:0.202942px"
               d="m 156.73333,40.575024 h 2.31354 c 1.81835,0 3.04412,-1.168945 3.04412,-2.841185 0,-1.67224 -1.22577,-2.841184 -3.04412,-2.841184 h -2.31354 z m 0.60071,-0.519531 v -4.643308 h 1.68035 c 1.50989,0 2.48401,0.957886 2.48401,2.321654 0,1.363769 -0.97412,2.321654 -2.48401,2.321654 z" />
          </g>
          <g
             id="g4488"
             transform="matrix(0.13021808,0,0,0.13021808,82.276708,87.323483)">
            <g
               id="layer1-0"
               transform="translate(-266.55899,-345.34488)">
              <path
                 style="fill:#3c6eb4"
                 id="path11"
                 d="m 316.7736,397.581 c 0,0 0,0 -20.53889,0 0.3327,4.45245 3.92157,7.77609 8.70715,7.77609 3.38983,0 6.31456,-1.39616 8.64094,-3.65507 0.46553,-0.46679 0.99726,-0.59962 1.59519,-0.59962 0.79781,0 1.59561,0.39932 2.12692,1.06388 0.3327,0.46553 0.53216,0.99726 0.53216,1.52857 0,0.73118 -0.3327,1.52857 -0.93106,2.12734 -2.7919,2.99052 -7.51086,4.98503 -12.16403,4.98503 -8.44149,0 -15.22074,-6.77967 -15.22074,-15.22158 0,-8.44149 6.58022,-15.22074 15.02171,-15.22074 8.37529,0 14.62323,6.51317 14.62323,15.08749 0,1.26418 -1.12924,2.12861 -2.39258,2.12861 z m -12.23065,-11.76512 c -4.45329,0 -7.51085,2.92473 -8.17499,7.17731 10.03626,0 16.35083,0 16.35083,0 -0.59836,-4.05355 -3.78874,-7.17731 -8.17584,-7.17731 z"
                 inkscape:connector-curvature="0" />
              <path
                 style="fill:#3c6eb4"
                 id="path13"
                 d="m 375.46344,410.80807 c -8.44106,0 -15.22074,-6.77968 -15.22074,-15.22159 0,-8.44149 6.77968,-15.22074 15.22074,-15.22074 8.44234,0 15.22159,6.77925 15.22159,15.22074 -4.2e-4,8.44149 -6.77968,15.22159 -15.22159,15.22159 z m 0,-24.65992 c -5.31688,0 -8.77377,4.25427 -8.77377,9.43833 0,5.18364 3.45689,9.43833 8.77377,9.43833 5.31731,0 8.77504,-4.25469 8.77504,-9.43833 -4.2e-4,-5.18406 -3.45773,-9.43833 -8.77504,-9.43833 z"
                 inkscape:connector-curvature="0" />
              <path
                 style="fill:#3c6eb4"
                 id="path15"
                 d="m 412.66183,380.36574 c -4.45963,0 -7.40966,1.319 -10.01391,4.62956 l -0.24036,-1.53995 v 0 c -0.20198,-1.60743 -1.57326,-2.84926 -3.23382,-2.84926 -1.80139,0 -3.26206,1.459 -3.26206,3.26081 0,0.003 0,0.005 0,0.008 v 0 0.003 0 23.40712 c 0,1.79464 1.46194,3.25743 3.257,3.25743 1.79465,0 3.25744,-1.46279 3.25744,-3.25743 v -12.56209 c 0,-5.71621 4.98502,-8.57432 10.23613,-8.57432 1.59519,0 2.85726,-1.32953 2.85726,-2.92515 0,-1.59561 -1.26207,-2.85726 -2.85768,-2.85726 z"
                 inkscape:connector-curvature="0" />
              <path
                 style="fill:#3c6eb4"
                 id="path17"
                 d="m 447.02614,395.58648 c 0.0666,-8.17541 -5.78326,-15.22074 -15.222,-15.22074 -8.44192,0 -15.28779,6.77925 -15.28779,15.22074 0,8.44191 6.64684,15.22159 14.68985,15.22159 4.01434,0 7.62682,-2.06621 9.23846,-4.22518 l 0.79359,2.01434 v 0 c 0.42589,1.13177 1.5176,1.93717 2.7978,1.93717 1.65001,0 2.98756,-1.33671 2.99009,-2.98545 v 0 -7.80687 0 z m -15.222,9.43833 c -5.31773,0 -8.77419,-4.25469 -8.77419,-9.43833 0,-5.18406 3.45604,-9.43833 8.77419,-9.43833 5.3173,0 8.77419,4.25427 8.77419,9.43833 0,5.18364 -3.45689,9.43833 -8.77419,9.43833 z"
                 inkscape:connector-curvature="0" />
              <path
                 style="fill:#3c6eb4"
                 id="path19"
                 d="m 355.01479,368.3337 c 0,-1.7938 -1.46194,-3.18997 -3.25659,-3.18997 -1.79422,0 -3.25743,1.39659 -3.25743,3.18997 v 17.1499 c -1.66097,-3.05756 -5.25026,-5.11786 -9.50495,-5.11786 -8.64052,0 -14.42336,6.51318 -14.42336,15.22074 0,8.70757 5.98229,15.22159 14.42336,15.22159 3.76555,0 7.03057,-1.55429 8.98587,-4.25554 l 0.72317,1.83428 c 0.44782,1.25912 1.64917,2.16024 3.06051,2.16024 1.78621,0 3.24984,-1.45435 3.24984,-3.24815 0,-0.005 0,-0.009 0,-0.0139 v 0 -38.95128 h -4.2e-4 z m -15.22116,36.69111 c -5.31731,0 -8.70715,-4.25469 -8.70715,-9.43833 0,-5.18406 3.38984,-9.43833 8.70715,-9.43833 5.31773,0 8.70714,4.0544 8.70714,9.43833 0,5.38309 -3.38941,9.43833 -8.70714,9.43833 z"
                 inkscape:connector-curvature="0" />
              <path
                 style="fill:#3c6eb4"
                 id="path21"
                 d="m 287.21553,365.34023 c -0.59414,-0.0877 -1.19966,-0.13198 -1.80097,-0.13198 -6.73118,0 -12.20746,5.4767 -12.20746,12.20788 v 3.8132 h -3.98903 c -1.46237,0 -2.65908,1.19671 -2.65908,2.65781 0,1.46321 1.19671,2.93738 2.65908,2.93738 h 3.98819 v 20.46004 c 0,1.79464 1.46236,3.25743 3.25658,3.25743 1.79507,0 3.25744,-1.46279 3.25744,-3.25743 v -20.46004 h 4.40986 c 1.46194,0 2.65823,-1.47417 2.65823,-2.93738 0,-1.46152 -1.19629,-2.65823 -2.65823,-2.65823 h -4.40733 v -3.8132 c 0,-3.13852 2.55323,-6.11469 5.69175,-6.11469 0.28294,0 0.56757,0.0211 0.84672,0.062 1.78031,0.26355 3.4358,-0.54269 3.70019,-2.32342 0.2627,-1.77904 -0.96606,-3.43538 -2.74594,-3.69935 z"
                 inkscape:connector-curvature="0" />
            </g>
            <path
               style="fill:#294172;enable-background:new"
               id="path2391"
               d="m 181.98344,61.675273 h 2.81558 v 0.37898 h -1.18152 v 2.94935 h -0.45254 v -2.94935 h -1.18152 v -0.37898 m 3.26144,0 h 0.67101 l 0.84937,2.26496 0.85381,-2.26496 h 0.67102 v 3.32833 h -0.43917 v -2.9226 l -0.85828,2.28279 h -0.45255 l -0.85827,-2.28279 v 2.9226 h -0.43694 v -3.32833"
               inkscape:connector-curvature="0" />
          </g>
        </g>
      </g>
      <path
         style="color:#000000;clip-rule:nonzero;display:inline;overflow:visible;visibility:visible;opacity:1;isolation:auto;mix-blend-mode:normal;color-interpolation:sRGB;color-interpolation-filters:linearRGB;solid-color:#000000;solid-opacity:1;fill:#3c6eb4;fill-opacity:1;fill-rule:nonzero;stroke:none;stroke-width:1.34766;stroke-linecap:butt;stroke-linejoin:bevel;stroke-miterlimit:4;stroke-dasharray:none;stroke-dashoffset:0;stroke-opacity:1;marker:none;color-rendering:auto;image-rendering:auto;shape-rendering:auto;text-rendering:auto;enable-background:accumulate"
         d="m 54.061011,31.074888 a 5.2916664,5.2916664 0 0 0 -5.291667,5.291667 5.2916664,5.2916664 0 0 0 5.291667,5.291666 5.2916664,5.2916664 0 0 0 5.291666,-5.291666 5.2916664,5.2916664 0 0 0 -5.291666,-5.291667 z m 0,0.748275 a 4.5433115,4.5433115 0 0 1 4.543392,4.543392 4.5433115,4.5433115 0 0 1 -4.543392,4.543391 4.5433115,4.5433115 0 0 1 -4.543392,-4.543391 4.5433115,4.5433115 0 0 1 4.543392,-4.543392 z"
         id="path4688"
         inkscape:connector-curvature="0"
         inkscape:export-filename="/home/lbrabec/Playground/landingpage/src/favicon.ico.png"
         inkscape:export-xdpi="96"
         inkscape:export-ydpi="96" />
      <rect
         style="opacity:1;fill:#3c6eb4;fill-opacity:1;stroke:#3c6eb4;stroke-width:0.350057;stroke-linecap:butt;stroke-linejoin:round;stroke-miterlimit:4;stroke-dasharray:none;stroke-dashoffset:0;stroke-opacity:1;paint-order:normal"
         id="rect850"
         width="5.8589997"
         height="0.81115383"
         x="51.131569"
         y="33.889786"
         ry="0.028468428" />
      <rect
         ry="0.14037813"
         y="35.288609"
         x="51.419483"
         height="3.999809"
         width="5.2831645"
         id="rect856"
         style="opacity:1;fill:#3c6eb4;fill-opacity:1;stroke:#3c6eb4;stroke-width:0.389459;stroke-linecap:butt;stroke-linejoin:round;stroke-miterlimit:4;stroke-dasharray:none;stroke-dashoffset:0;stroke-opacity:1;paint-order:normal" />
      <rect
         ry="0.26079646"
         y="35.546757"
         x="53.106422"
         height="0.52159292"
         width="1.9092923"
         id="rect840"
         style="fill:#fdfefe;fill-opacity:1;stroke-width:0.4;stroke-linejoin:round;stroke-miterlimit:4;stroke-dasharray:none" />
    </g>
  </g>
</svg>
